# xmcd
#
# Track frame offsets: 
#        150
#        11881
#        32983
#        48246
#        72122
#        96858
#        115807
#        137646
#        153970
#        171883
#        184609
#
# Disc length: 2750 seconds
#
# Revision: 0
# Processed by: cddbd v1.5.2PL0 Copyright (c) Steve Scherf et al.
# Submitted via: ExactAudioCopy v1.0b4
#
DISCID=8d0abc0b
DTITLE=Lightnin Malcolm - Foot Soldier
DYEAR=2016
DGENRE=Blues
TTITLE0=Done Wrong
TTITLE1=Tree
TTITLE2=Hero
TTITLE3=Don't Bitch
TTITLE4=Waves
TTITLE5=Gates Of Hell
TTITLE6=Gettin' Dark
TTITLE7=Treat That Woman Right
TTITLE8=Best Friend's Wife
TTITLE9=Good Boy
TTITLE10=Big Jack
EXTD=
EXTT0=
EXTT1=
EXTT2=
EXTT3=
EXTT4=
EXTT5=
EXTT6=
EXTT7=
EXTT8=
EXTT9=
EXTT10=
PLAYORDER=
